#!OML:ASF I:\Actors\actors\Patient Classification 2\Patient 1\Session 1\actor1.ASF
:FULLY-SPECIFIED
:DEGREES
1144
root -1.02055 18.7131 5.08484 2.67853 2.06873 -0.537688
lowerback 19.9726 -1.3358 1.94828
upperback 11.6416 -1.3914 0.575363
thorax 1.38716 -0.613697 -0.237492
lowerneck -24.033 -1.40195 -1.39205
upperneck 20.7329 -2.08832 2.48282
head 10.6803 -0.743663 0.793878
rclavicle 5.86415e-015 -3.47873e-015
rhumerus 4.18604 74.5022 -100.259
rradius 103.283
rwrist -48.4265
rhand 34.6594 -44.9552
rfingers 7.12502
rthumb 57.8401 -60.8192
lclavicle 5.86415e-015 -3.47873e-015
lhumerus -48.0137 -68.5101 143.187
lradius 126.108
lwrist 48.092
lhand 14.4704 342.881
lfingers 7.12502
lthumb 39.3529 8.29929
rfemur 3.81655 -0.315438 15.8765
rtibia 4.77083e-015
rfoot -16.3286 -14.9054
rtoes -10.2315
lfemur -13.871 0.128849 -11.9169
ltibia 27.4679
lfoot -14.761 4.00248
ltoes -58.3891
1145
root -1.0702 18.7119 5.0937 2.5193 2.21252 -0.620942
lowerback 19.8389 -1.30708 1.93657
upperback 11.5125 -1.35669 0.613185
thorax 1.31428 -0.599055 -0.198312
lowerneck -23.7526 -1.33626 -1.18416
upperneck 20.313 -2.0048 2.25292
head 10.4685 -0.723155 0.689562
rclavicle 1.98785e-015 -6.55989e-015
rhumerus 3.68285 74.6785 -100.593
rradius 103.239
rwrist -47.1677
rhand 33.9665 -41.9504
rfingers 7.12502
rthumb 57.2332 -58.3404
lclavicle 1.98785e-015 -6.55989e-015
lhumerus -48.2141 -68.4534 143.363
lradius 126.037
lwrist 48.1716
lhand 14.3316 342.707
lfingers 7.12502
lthumb 39.2222 8.16316
rfemur 4.04473 -0.446254 16.1378
rtibia -7.95139e-015
rfoot -16.4728 -14.7668
rtoes -9.59505
lfemur -13.7378 0.096743 -11.6485
ltibia 27.5055
lfoot -14.6318 3.9417
ltoes -58.5233
1146
root -1.11415 18.7131 5.1044 2.36617 2.3844 -0.626527
lowerback 19.7081 -1.30934 1.92666
upperback 11.3665 -1.36203 0.579165
thorax 1.21899 -0.60188 -0.22869
lowerneck -23.606 -1.31372 -1.19929
upperneck 20.0523 -2.0026 2.40714
head 10.3494 -0.706754 0.747369
rclavicle -1.98785e-016 -2.08724e-015
rhumerus 2.82874 74.309 -101.474
rradius 103.358
rwrist -47.1008
rhand 33.4636 -41.7046
rfingers 7.12502
rthumb 56.791 -58.4633
lclavicle -1.98785e-016 -2.08724e-015
lhumerus -48.5446 -68.3008 143.588
lradius 126.018
lwrist 48.336
lhand 14.3019 342.689
lfingers 7.12502
lthumb 39.1942 8.15275
rfemur 4.27775 -0.609431 16.2916
rtibia -7.15625e-015
rfoot -16.5554 -14.6932
rtoes -9.64264
lfemur -13.601 0.0413516 -11.4907
ltibia 27.534
lfoot -14.4865 3.85348
ltoes -58.5437
1147
root -1.15382 18.716 5.11631 2.21079 2.59068 -0.613989
lowerback 19.6935 -1.32747 1.95762
upperback 11.1418 -1.37719 0.51107
thorax 0.978163 -0.607847 -0.313327
lowerneck -23.5034 -1.31034 -1.27877
upperneck 19.9093 -2.03643 2.68102
head 10.2843 -0.695936 0.85288
rclavicle 1.00386e-014 -2.5842e-015
rhumerus 1.59974 73.861 -102.736
rradius 103.454
rwrist -46.8938
rhand 33.5856 -41.6154
rfingers 7.12502
rthumb 56.8985 -58.2857
lclavicle 1.00386e-014 -2.5842e-015
lhumerus -48.9912 -68.0627 143.92
lradius 125.989
lwrist 48.3697
lhand 14.2877 342.554
lfingers 7.12502
lthumb 39.1808 8.02203
rfemur 4.5237 -0.807953 16.41
rtibia 1.74931e-014
rfoot -16.5876 -14.6578
rtoes -9.92276
lfemur -13.4585 -0.0382426 -11.3745
ltibia 27.5406
lfoot -14.2981 3.78162
ltoes -58.5805
1148
root -1.19061 18.7187 5.12925 2.01574 2.84404 -0.61762
lowerback 19.6971 -1.36199 1.97664
upperback 10.9411 -1.41484 0.468105
thorax 0.755193 -0.626332 -0.36028
lowerneck -23.502 -1.29802 -1.25008
upperneck 19.8214 -2.04561 2.75391
head 10.2532 -0.689456 0.87244
rclavicle -1.09332e-014 2.88238e-015
rhumerus 0.326365 73.3421 -104.025
rradius 103.569
rwrist -46.3235
rhand 34.1854 -41.008
rfingers 7.12502
rthumb 57.4253 -57.2341
lclavicle -1.09332e-014 2.88238e-015
lhumerus -49.1859 -67.8637 144.052
lradius 125.93
lwrist 48.29
lhand 14.2016 342.446
lfingers 7.12502
lthumb 39.0996 7.9377
rfemur 4.8296 -1.05098 16.5351
rtibia -7.95139e-015
rfoot -16.6142 -14.541
rtoes -9.45308
lfemur -13.2694 -0.206914 -11.2445
ltibia 27.5174
lfoot -14.0641 3.73423
ltoes -58.6289
1149
root -1.22241 18.7213 5.14479 1.82318 3.19607 -0.613132
lowerback 19.5865 -1.40034 1.93182
upperback 10.7971 -1.46986 0.508407
thorax 0.654748 -0.657621 -0.282649
lowerneck -23.5782 -1.32534 -1.28862
upperneck 19.7583 -2.06216 2.73246
head 10.2445 -0.702566 0.868136
rclavicle -1.83876e-015 2.68359e-015
rhumerus -0.799621 72.6721 -105.119
rradius 103.719
rwrist -45.4866
rhand 34.8628 -40.545
rfingers 7.12502
rthumb 58.0176 -56.2506
lclavicle -1.83876e-015 2.68359e-015
lhumerus -49.0836 -67.7291 144.036
lradius 125.827
lwrist 48.1174
lhand 13.9727 342.379
lfingers 7.12502
lthumb 38.8838 7.93269
rfemur 5.16315 -1.39298 16.6298
rtibia 1.59028e-015
rfoot -16.7194 -14.3705
rtoes -8.63842
lfemur -13.0853 -0.497312 -11.135
ltibia 27.47
lfoot -13.8818 3.72329
ltoes -58.6233
1150
root -1.2497 18.7239 5.16291 1.65749 3.51626 -0.613253
lowerback 19.4236 -1.39578 1.87233
upperback 10.6316 -1.47268 0.578228
thorax 0.559805 -0.664419 -0.17609
lowerneck -23.5484 -1.35925 -1.43601
upperneck 19.6287 -2.07213 2.80565
head 10.195 -0.710666 0.916431
rclavicle -1.41137e-014 1.88845e-015
rhumerus -1.67691 71.9064 -105.889
rradius 103.852
rwrist -44.5438
rhand 35.3369 -40.2118
rfingers 7.12502
rthumb 58.4303 -55.5408
lclavicle -1.41137e-014 1.88845e-015
lhumerus -48.9472 -67.6423 144.056
lradius 125.691
lwrist 47.938
lhand 13.5633 342.206
lfingers 7.12502
lthumb 38.4976 7.8676
rfemur 5.46398 -1.70501 16.7128
rtibia 0
rfoot -16.8223 -14.2637
rtoes -8.4961
lfemur -12.8901 -0.773581 -11.0413
ltibia 27.3955
lfoot -13.7882 3.71794
ltoes -58.5845
1151
root -1.27291 18.7245 5.18234 1.49245 3.71369 -0.651433
lowerback 19.2622 -1.36411 1.85845
upperback 10.4244 -1.4341 0.607718
thorax 0.417959 -0.648158 -0.145059
lowerneck -23.3634 -1.34339 -1.47392
upperneck 19.3891 -2.03735 2.82646
head 10.0754 -0.698385 0.934749
rclavicle -5.56597e-015 -3.47873e-015
rhumerus -2.38084 71.1402 -106.507
rradius 103.912
rwrist -43.483
rhand 35.4384 -39.5974
rfingers 7.12502
rthumb 58.5185 -54.8443
lclavicle -5.56597e-015 -3.47873e-015
lhumerus -48.8875 -67.5872 144.03
lradius 125.584
lwrist 47.8306
lhand 12.9913 342.195
lfingers 7.12502
lthumb 37.9577 8.00533
rfemur 5.74015 -1.89446 16.8288
rtibia -1.03368e-014
rfoot -16.8572 -14.214
rtoes -8.75921
lfemur -12.638 -1.00191 -10.9226
ltibia 27.2957
lfoot -13.7572 3.71939
ltoes -58.6178
1152
root -1.29024 18.7222 5.20246 1.35974 3.88244 -0.726128
lowerback 19.0258 -1.33056 1.87705
upperback 10.2186 -1.39033 0.636727
thorax 0.315611 -0.627866 -0.135301
lowerneck -23.1848 -1.34215 -1.55082
upperneck 19.0834 -2.02417 2.91488
head 9.93556 -0.691023 0.979705
rclavicle 7.50412e-015 1.78906e-015
rhumerus -2.8541 70.313 -106.872
rradius 103.935
rwrist -42.3742
rhand 35.3241 -38.8032
rfingers 7.12502
rthumb 58.4192 -54.1424
lclavicle 7.50412e-015 1.78906e-015
lhumerus -48.6644 -67.5942 143.796
lradius 125.48
lwrist 47.5582
lhand 12.3371 342.245
lfingers 7.12502
lthumb 37.3394 8.22142
rfemur 5.98003 -2.05665 16.9702
rtibia -2.38542e-015
rfoot -16.8972 -14.1709
rtoes -8.9134
lfemur -12.4035 -1.20681 -10.7851
ltibia 27.186
lfoot -13.7908 3.70871
ltoes -58.6805
1153
root -1.30115 18.7174 5.22355 1.26799 4.06865 -0.846616
lowerback 18.6883 -1.28339 1.9111
upperback 10.028 -1.32824 0.735576
thorax 0.283696 -0.599325 -0.0659311
lowerneck -23.0469 -1.34624 -1.64524
upperneck 18.7385 -1.99553 2.93985
head 9.78857 -0.685454 1.00698
rclavicle 5.66536e-015 -1.32192e-014
rhumerus -2.94355 69.4709 -106.632
rradius 103.981
rwrist -41.461
rhand 35.003 -38.235
rfingers 7.12502
rthumb 58.1398 -53.8304
lclavicle 5.66536e-015 -1.32192e-014
lhumerus -48.0443 -67.6297 143.25
lradius 125.347
lwrist 47.0663
lhand 11.9371 342.259
lfingers 7.12502
lthumb 36.9612 8.33357
rfemur 6.17828 -2.23721 17.1365
rtibia 1.27222e-014
rfoot -16.9764 -14.0958
rtoes -8.75838
lfemur -12.2113 -1.36052 -10.6252
ltibia 27.068
lfoot -13.9231 3.66376
ltoes -58.6996
1154
root -1.30669 18.7095 5.24682 1.18216 4.22932 -1.02398
lowerback 18.3029 -1.25569 1.99792
upperback 9.81989 -1.28473 0.849331
thorax 0.257401 -0.578649 -0.00787768
lowerneck -22.8777 -1.31842 -1.57397
upperneck 18.437 -1.93055 2.75142
head 9.64685 -0.676418 0.937738
rclavicle 5.96354e-016 2.78299e-015
rhumerus -2.82538 68.646 -106.049
rradius 104.039
rwrist -40.9849
rhand 34.129 -37.9367
rfingers 7.12502
rthumb 57.3759 -54.2052
lclavicle 5.96354e-016 2.78299e-015
lhumerus -47.2814 -67.5523 142.454
lradius 125.278
lwrist 46.4509
lhand 11.8002 342.454
lfingers 7.12502
lthumb 36.8317 8.56207
rfemur 6.36408 -2.39156 17.3459
rtibia -1.59028e-015
rfoot -17.051 -14.0181
rtoes -8.60652
lfemur -11.9976 -1.50852 -10.437
ltibia 26.9326
lfoot -14.2543 3.69821
ltoes -58.691
